<?xml version="1.0" standalone="no"?>
<!DOCTYPE svg PUBLIC "-//W3C//DTD SVG 20010904//EN"
 "http://www.w3.org/TR/2001/REC-SVG-20010904/DTD/svg10.dtd">
<svg version="1.0" xmlns="http://www.w3.org/2000/svg"
 width="500.000000pt" height="500.000000pt" viewBox="0 0 500.000000 500.000000"
 preserveAspectRatio="xMidYMid meet">
<metadata>
Created by potrace 1.14, written by Peter Selinger 2001-2017
</metadata>
<g transform="translate(0.000000,500.000000) scale(0.100000,-0.100000)"
fill="#000000" stroke="none">
<path d="M2244 3094 c-435 -73 -811 -360 -1005 -769 -97 -202 -135 -394 -126
-635 8 -215 42 -355 132 -545 44 -90 142 -246 160 -252 6 -1 35 39 66 90 135
220 358 490 419 507 29 7 38 33 39 113 1 49 4 57 20 57 11 0 22 -4 26 -9 3 -5
40 -21 83 -35 44 -15 116 -50 161 -79 46 -29 92 -57 102 -63 11 -6 108 -85
215 -175 108 -90 210 -175 227 -188 l29 -24 -7 24 c-4 13 -8 31 -9 41 -1 9
-14 30 -29 48 -16 17 -27 34 -24 36 2 3 42 -35 88 -83 46 -49 108 -108 138
-133 30 -25 62 -58 72 -75 10 -16 42 -45 71 -65 29 -19 54 -43 56 -53 3 -17 2
-17 -17 2 -12 12 -25 21 -30 21 -6 0 -30 14 -54 30 -25 17 -48 30 -52 30 -3 0
-31 -23 -60 -51 -56 -53 -74 -57 -127 -34 -33 13 -20 -23 24 -71 49 -53 77
-71 87 -55 10 15 75 -35 129 -98 39 -46 45 -50 75 -44 76 14 76 15 62 80 -7
32 -19 75 -25 96 -6 22 -9 41 -7 44 11 10 38 -47 48 -103 17 -91 17 -91 88
-39 264 194 453 482 527 805 113 485 -67 1029 -443 1343 -199 165 -430 274
-663 312 -117 18 -353 18 -466 -1z m738 -554 c36 -40 138 -236 138 -265 0 -16
-22 -25 -59 -25 -26 0 -61 26 -107 81 -24 28 -69 68 -136 122 -27 20 -48 46
-48 56 0 10 -7 24 -15 31 -18 15 -11 30 14 30 10 0 23 6 29 13 8 10 28 11 79
6 64 -6 70 -10 105 -49z m252 -554 c27 -26 27 -28 10 -41 -11 -8 -27 -15 -36
-15 -24 0 -34 21 -14 32 20 11 12 28 -14 28 -24 0 -41 -30 -33 -58 11 -45 -2
-52 -50 -29 -24 12 -43 27 -41 32 5 11 -64 52 -79 47 -5 -1 -6 1 -3 6 3 5 -4
16 -15 26 -17 14 -18 20 -8 32 10 12 18 11 57 -11 51 -28 72 -32 72 -10 0 8
10 25 23 38 l22 23 40 -37 c22 -20 53 -49 69 -63z m-35 -145 c10 -7 11 -13 2
-30 -16 -28 -41 -27 -41 2 0 35 13 44 39 28z"/>
<path d="M2320 1261 c0 -5 12 -16 26 -26 l25 -16 -16 25 c-17 26 -35 34 -35
17z"/>
<path d="M2012 890 c-60 -14 -120 -39 -224 -94 -79 -41 -144 -80 -147 -87 -2
-6 66 25 152 69 112 60 175 86 228 97 41 9 78 20 83 25 13 13 9 12 -92 -10z"/>
<path d="M2201 896 c2 -2 18 -6 34 -10 22 -5 26 -4 15 4 -14 9 -59 15 -49 6z"/>
<path d="M2305 860 c3 -4 17 -11 32 -14 33 -8 141 -63 164 -83 20 -17 91 -54
84 -43 -9 15 -142 98 -185 115 -64 25 -101 35 -95 25z"/>
<path d="M2735 790 c-17 -8 -30 -22 -30 -30 0 -8 15 -46 34 -85 18 -38 41
-103 51 -143 10 -41 21 -76 24 -80 10 -10 6 31 -9 93 -8 33 -17 98 -21 145 -9
115 -11 119 -49 100z"/>
<path d="M3240 491 c0 -26 93 -222 136 -287 38 -56 40 -65 22 -94 -11 -17 -9
-23 10 -42 12 -12 22 -17 22 -10 0 24 21 12 31 -18 7 -19 18 -30 30 -30 16 0
17 4 8 27 -13 36 -39 84 -121 223 -37 64 -72 128 -77 143 -15 38 -61 105 -61
88z"/>
<path d="M1354 348 c-13 -36 -19 -78 -19 -131 1 -65 -2 -78 -17 -83 -19 -6
-18 -19 4 -91 9 -32 12 -33 60 -33 44 0 49 2 43 17 -13 32 -24 146 -25 248 -1
70 -4 93 -10 78 -14 -35 -23 -27 -16 12 10 49 3 44 -20 -17z"/>
<path d="M2090 380 c-13 -8 -12 -10 3 -10 9 0 17 5 17 10 0 12 -1 12 -20 0z"/>
<path d="M2835 275 c-4 -41 -4 -118 0 -170 l7 -95 184 0 c104 0 184 4 184 9 0
5 20 19 45 31 41 20 54 37 39 53 -8 7 -65 -12 -86 -30 -26 -23 -91 -7 -138 32
-22 18 -53 36 -70 40 -16 4 -30 11 -30 16 0 6 6 7 13 3 7 -4 8 -3 4 2 -5 5
-15 9 -24 9 -9 0 -23 20 -34 50 -10 28 -29 58 -41 69 -13 10 -23 25 -23 34 0
8 -5 17 -12 19 -7 3 -14 -21 -18 -72z m52 -217 c-3 -8 -6 -5 -6 6 -1 11 2 17
5 13 3 -3 4 -12 1 -19z"/>
<path d="M3360 343 c0 -5 7 -18 15 -29 12 -16 14 -16 15 -3 0 9 -7 22 -15 29
-8 7 -15 8 -15 3z"/>
<path d="M3108 170 c-4 -28 -1 -33 30 -46 19 -7 36 -14 37 -14 8 0 -42 84 -52
87 -6 2 -13 -10 -15 -27z"/>
<path d="M1462 93 c-22 -55 -25 -83 -9 -83 9 0 17 14 21 39 3 22 9 46 12 55 3
9 2 16 -4 16 -5 0 -14 -12 -20 -27z"/>
</g>
</svg>
